<mxfile host="Electron" agent="Mozilla/5.0 (X11; Linux x86_64) AppleWebKit/537.36 (KHTML, like Gecko) draw.io/26.0.9 Chrome/128.0.6613.186 Electron/32.2.5 Safari/537.36" version="26.0.9">
  <diagram name="Page-1" id="TyhZqRyOtzvhNYX7EIzf">
    <mxGraphModel dx="2123" dy="1289" grid="1" gridSize="10" guides="1" tooltips="1" connect="1" arrows="1" fold="1" page="1" pageScale="1" pageWidth="2336" pageHeight="1654" math="0" shadow="0">
      <root>
        <mxCell id="0" />
        <mxCell id="1" parent="0" />
        <mxCell id="FhB4urQii62Pyy3qUbQB-34" value="" style="rounded=1;whiteSpace=wrap;html=1;strokeWidth=2;strokeColor=#CCCC00;rotation=0;perimeterSpacing=0;shadow=0;fontStyle=1" vertex="1" parent="1">
          <mxGeometry x="540" y="750" width="380" height="470" as="geometry" />
        </mxCell>
        <mxCell id="FhB4urQii62Pyy3qUbQB-32" value="" style="rounded=1;whiteSpace=wrap;html=1;strokeWidth=2;strokeColor=#CCCC00;" vertex="1" parent="1">
          <mxGeometry x="1560" y="630" width="460" height="360" as="geometry" />
        </mxCell>
        <mxCell id="FhB4urQii62Pyy3qUbQB-30" value="" style="rounded=1;whiteSpace=wrap;html=1;strokeWidth=2;strokeColor=#CCCC00;" vertex="1" parent="1">
          <mxGeometry x="1351" y="20" width="140" height="645" as="geometry" />
        </mxCell>
        <mxCell id="FhB4urQii62Pyy3qUbQB-27" value="" style="rounded=1;whiteSpace=wrap;html=1;strokeWidth=2;strokeColor=#CCCC00;" vertex="1" parent="1">
          <mxGeometry x="660" y="40" width="600" height="500" as="geometry" />
        </mxCell>
        <mxCell id="FhB4urQii62Pyy3qUbQB-23" value="" style="rounded=1;whiteSpace=wrap;html=1;strokeWidth=2;strokeColor=#CCCC00;rotation=0;perimeterSpacing=0;shadow=0;fontStyle=1" vertex="1" parent="1">
          <mxGeometry x="20" y="450" width="538.95" height="270" as="geometry" />
        </mxCell>
        <mxCell id="FhB4urQii62Pyy3qUbQB-37" style="edgeStyle=orthogonalEdgeStyle;rounded=0;orthogonalLoop=1;jettySize=auto;html=1;exitX=1;exitY=0.5;exitDx=0;exitDy=0;exitPerimeter=0;fontStyle=1" edge="1" parent="1" source="FhB4urQii62Pyy3qUbQB-1" target="FhB4urQii62Pyy3qUbQB-2">
          <mxGeometry relative="1" as="geometry" />
        </mxCell>
        <mxCell id="FhB4urQii62Pyy3qUbQB-1" value="AWS CloudFront" style="outlineConnect=0;dashed=0;verticalLabelPosition=bottom;verticalAlign=top;align=center;html=1;shape=mxgraph.aws3.cloudfront;fillColor=#F58536;gradientColor=none;fontStyle=1" vertex="1" parent="1">
          <mxGeometry x="63.5" y="490" width="76.5" height="93" as="geometry" />
        </mxCell>
        <mxCell id="FhB4urQii62Pyy3qUbQB-39" value="" style="edgeStyle=orthogonalEdgeStyle;rounded=0;orthogonalLoop=1;jettySize=auto;html=1;fontStyle=1" edge="1" parent="1" source="FhB4urQii62Pyy3qUbQB-2" target="FhB4urQii62Pyy3qUbQB-3">
          <mxGeometry relative="1" as="geometry">
            <mxPoint x="273.95" y="610" as="sourcePoint" />
            <Array as="points">
              <mxPoint x="273.95" y="647" />
            </Array>
          </mxGeometry>
        </mxCell>
        <mxCell id="FhB4urQii62Pyy3qUbQB-2" value="&lt;span data-end=&quot;1421&quot; data-start=&quot;1386&quot; style=&quot;&quot;&gt;Application Load Balancer (ALB)&lt;/span&gt;" style="points=[];aspect=fixed;html=1;align=center;shadow=0;dashed=0;fillColor=#FF6A00;strokeColor=none;shape=mxgraph.alibaba_cloud.alb_application_load_balancer_01;labelPosition=center;verticalLabelPosition=bottom;verticalAlign=top;fontStyle=1" vertex="1" parent="1">
          <mxGeometry x="228.2" y="498.02" width="90.75" height="76.96" as="geometry" />
        </mxCell>
        <mxCell id="FhB4urQii62Pyy3qUbQB-3" value="&lt;span data-end=&quot;1481&quot; data-start=&quot;1459&quot; style=&quot;&quot;&gt;Amazon API Gateway&lt;/span&gt;" style="outlineConnect=0;dashed=0;verticalLabelPosition=bottom;verticalAlign=top;align=center;html=1;shape=mxgraph.aws3.api_gateway;fillColor=#D9A741;gradientColor=none;fontStyle=1" vertex="1" parent="1">
          <mxGeometry x="436.53000000000003" y="600" width="76.5" height="93" as="geometry" />
        </mxCell>
        <mxCell id="FhB4urQii62Pyy3qUbQB-4" value="Lambda" style="outlineConnect=0;dashed=0;verticalLabelPosition=bottom;verticalAlign=top;align=center;html=1;shape=mxgraph.aws3.lambda;fillColor=#F58534;gradientColor=none;fontStyle=1" vertex="1" parent="1">
          <mxGeometry x="582.63" y="795" width="76.5" height="93" as="geometry" />
        </mxCell>
        <mxCell id="FhB4urQii62Pyy3qUbQB-60" style="edgeStyle=orthogonalEdgeStyle;rounded=0;orthogonalLoop=1;jettySize=auto;html=1;exitX=1;exitY=1;exitDx=0;exitDy=0;exitPerimeter=0;" edge="1" parent="1" source="FhB4urQii62Pyy3qUbQB-5" target="FhB4urQii62Pyy3qUbQB-9">
          <mxGeometry relative="1" as="geometry" />
        </mxCell>
        <mxCell id="FhB4urQii62Pyy3qUbQB-61" style="edgeStyle=orthogonalEdgeStyle;rounded=0;orthogonalLoop=1;jettySize=auto;html=1;exitX=1;exitY=0.75;exitDx=0;exitDy=0;exitPerimeter=0;" edge="1" parent="1" source="FhB4urQii62Pyy3qUbQB-5" target="FhB4urQii62Pyy3qUbQB-8">
          <mxGeometry relative="1" as="geometry">
            <Array as="points">
              <mxPoint x="1060" y="1054" />
              <mxPoint x="1060" y="720" />
            </Array>
          </mxGeometry>
        </mxCell>
        <mxCell id="FhB4urQii62Pyy3qUbQB-5" value="Fargate" style="sketch=0;points=[[0,0,0],[0.25,0,0],[0.5,0,0],[0.75,0,0],[1,0,0],[0,1,0],[0.25,1,0],[0.5,1,0],[0.75,1,0],[1,1,0],[0,0.25,0],[0,0.5,0],[0,0.75,0],[1,0.25,0],[1,0.5,0],[1,0.75,0]];outlineConnect=0;fontColor=#232F3E;fillColor=#ED7100;strokeColor=#ffffff;dashed=0;verticalLabelPosition=bottom;verticalAlign=top;align=center;html=1;fontSize=12;fontStyle=1;aspect=fixed;shape=mxgraph.aws4.resourceIcon;resIcon=mxgraph.aws4.fargate;" vertex="1" parent="1">
          <mxGeometry x="584.0799999999999" y="995" width="78" height="78" as="geometry" />
        </mxCell>
        <mxCell id="FhB4urQii62Pyy3qUbQB-6" value="Amazon SQS" style="outlineConnect=0;dashed=0;verticalLabelPosition=bottom;verticalAlign=top;align=center;html=1;shape=mxgraph.aws3.sqs;fillColor=#D9A741;gradientColor=none;fontStyle=1" vertex="1" parent="1">
          <mxGeometry x="784.08" y="795" width="76.5" height="93" as="geometry" />
        </mxCell>
        <mxCell id="FhB4urQii62Pyy3qUbQB-7" value="Amazon&amp;nbsp;EventBridge" style="points=[];aspect=fixed;html=1;align=center;shadow=0;dashed=0;fillColor=#FF6A00;strokeColor=none;shape=mxgraph.alibaba_cloud.eventbridge;labelPosition=center;verticalLabelPosition=bottom;verticalAlign=top;fontStyle=1" vertex="1" parent="1">
          <mxGeometry x="794.6" y="1100" width="85.4" height="85.4" as="geometry" />
        </mxCell>
        <mxCell id="FhB4urQii62Pyy3qUbQB-8" value="Amazon DynamoDB" style="sketch=0;outlineConnect=0;fontColor=#232F3E;gradientColor=none;strokeColor=#ffffff;fillColor=#232F3E;dashed=0;verticalLabelPosition=middle;verticalAlign=bottom;align=center;html=1;whiteSpace=wrap;fontSize=10;fontStyle=1;spacing=3;shape=mxgraph.aws4.productIcon;prIcon=mxgraph.aws4.dynamodb;" vertex="1" parent="1">
          <mxGeometry x="1590" y="675.4" width="80" height="110" as="geometry" />
        </mxCell>
        <mxCell id="FhB4urQii62Pyy3qUbQB-63" value="" style="edgeStyle=orthogonalEdgeStyle;rounded=0;orthogonalLoop=1;jettySize=auto;html=1;" edge="1" parent="1" source="FhB4urQii62Pyy3qUbQB-9" target="FhB4urQii62Pyy3qUbQB-10">
          <mxGeometry relative="1" as="geometry" />
        </mxCell>
        <mxCell id="FhB4urQii62Pyy3qUbQB-9" value="Amazon&lt;br&gt;Aurora PostgreSQL" style="sketch=0;outlineConnect=0;fontColor=#232F3E;gradientColor=none;strokeColor=#ffffff;fillColor=#232F3E;dashed=0;verticalLabelPosition=middle;verticalAlign=bottom;align=center;html=1;whiteSpace=wrap;fontSize=10;fontStyle=1;spacing=3;shape=mxgraph.aws4.productIcon;prIcon=mxgraph.aws4.aurora;" vertex="1" parent="1">
          <mxGeometry x="1590" y="845.4" width="80" height="120" as="geometry" />
        </mxCell>
        <mxCell id="FhB4urQii62Pyy3qUbQB-64" value="" style="edgeStyle=orthogonalEdgeStyle;rounded=0;orthogonalLoop=1;jettySize=auto;html=1;" edge="1" parent="1" source="FhB4urQii62Pyy3qUbQB-10" target="FhB4urQii62Pyy3qUbQB-11">
          <mxGeometry relative="1" as="geometry" />
        </mxCell>
        <mxCell id="FhB4urQii62Pyy3qUbQB-10" value="Amazon S3" style="sketch=0;outlineConnect=0;fontColor=#232F3E;gradientColor=none;strokeColor=#ffffff;fillColor=#232F3E;dashed=0;verticalLabelPosition=middle;verticalAlign=bottom;align=center;html=1;whiteSpace=wrap;fontSize=10;fontStyle=1;spacing=3;shape=mxgraph.aws4.productIcon;prIcon=mxgraph.aws4.s3;" vertex="1" parent="1">
          <mxGeometry x="1750" y="855.4" width="80" height="100" as="geometry" />
        </mxCell>
        <mxCell id="FhB4urQii62Pyy3qUbQB-11" value="Amazon Glacier" style="sketch=0;outlineConnect=0;fontColor=#232F3E;gradientColor=none;strokeColor=#ffffff;fillColor=#232F3E;dashed=0;verticalLabelPosition=middle;verticalAlign=bottom;align=center;html=1;whiteSpace=wrap;fontSize=10;fontStyle=1;spacing=3;shape=mxgraph.aws4.productIcon;prIcon=mxgraph.aws4.glacier;" vertex="1" parent="1">
          <mxGeometry x="1910" y="850.4" width="80" height="110" as="geometry" />
        </mxCell>
        <mxCell id="FhB4urQii62Pyy3qUbQB-13" value="AWS Shield" style="sketch=0;outlineConnect=0;fontColor=#232F3E;gradientColor=none;strokeColor=#ffffff;fillColor=#232F3E;dashed=0;verticalLabelPosition=middle;verticalAlign=bottom;align=center;html=1;whiteSpace=wrap;fontSize=10;fontStyle=1;spacing=3;shape=mxgraph.aws4.productIcon;prIcon=mxgraph.aws4.shield;" vertex="1" parent="1">
          <mxGeometry x="680" y="240" width="80" height="100" as="geometry" />
        </mxCell>
        <mxCell id="FhB4urQii62Pyy3qUbQB-54" style="edgeStyle=orthogonalEdgeStyle;rounded=0;orthogonalLoop=1;jettySize=auto;html=1;" edge="1" parent="1" source="FhB4urQii62Pyy3qUbQB-14" target="FhB4urQii62Pyy3qUbQB-15">
          <mxGeometry relative="1" as="geometry" />
        </mxCell>
        <mxCell id="FhB4urQii62Pyy3qUbQB-14" value="Amazon GuardDuty" style="sketch=0;outlineConnect=0;fontColor=#232F3E;gradientColor=none;strokeColor=#ffffff;fillColor=#232F3E;dashed=0;verticalLabelPosition=middle;verticalAlign=bottom;align=center;html=1;whiteSpace=wrap;fontSize=10;fontStyle=1;spacing=3;shape=mxgraph.aws4.productIcon;prIcon=mxgraph.aws4.guardduty;" vertex="1" parent="1">
          <mxGeometry x="680" y="403" width="80" height="110" as="geometry" />
        </mxCell>
        <mxCell id="FhB4urQii62Pyy3qUbQB-55" value="" style="edgeStyle=orthogonalEdgeStyle;rounded=0;orthogonalLoop=1;jettySize=auto;html=1;" edge="1" parent="1" source="FhB4urQii62Pyy3qUbQB-15" target="FhB4urQii62Pyy3qUbQB-16">
          <mxGeometry relative="1" as="geometry" />
        </mxCell>
        <mxCell id="FhB4urQii62Pyy3qUbQB-15" value="AWS&#xa;CloudTrail" style="sketch=0;outlineConnect=0;fontColor=#232F3E;gradientColor=none;strokeColor=#ffffff;fillColor=#232F3E;dashed=0;verticalLabelPosition=middle;verticalAlign=bottom;align=center;html=1;whiteSpace=wrap;fontSize=10;fontStyle=1;spacing=3;shape=mxgraph.aws4.productIcon;prIcon=mxgraph.aws4.cloudtrail;" vertex="1" parent="1">
          <mxGeometry x="840" y="403" width="80" height="110" as="geometry" />
        </mxCell>
        <mxCell id="FhB4urQii62Pyy3qUbQB-57" style="edgeStyle=orthogonalEdgeStyle;rounded=0;orthogonalLoop=1;jettySize=auto;html=1;" edge="1" parent="1" source="FhB4urQii62Pyy3qUbQB-16" target="FhB4urQii62Pyy3qUbQB-17">
          <mxGeometry relative="1" as="geometry" />
        </mxCell>
        <mxCell id="FhB4urQii62Pyy3qUbQB-16" value="Amazon CloudWatch" style="sketch=0;outlineConnect=0;fontColor=#232F3E;gradientColor=none;strokeColor=#ffffff;fillColor=#232F3E;dashed=0;verticalLabelPosition=middle;verticalAlign=bottom;align=center;html=1;whiteSpace=wrap;fontSize=10;fontStyle=1;spacing=3;shape=mxgraph.aws4.productIcon;prIcon=mxgraph.aws4.cloudwatch;" vertex="1" parent="1">
          <mxGeometry x="1000" y="403" width="80" height="110" as="geometry" />
        </mxCell>
        <mxCell id="FhB4urQii62Pyy3qUbQB-17" value="AWS X-Ray" style="sketch=0;outlineConnect=0;fontColor=#232F3E;gradientColor=none;strokeColor=#ffffff;fillColor=#232F3E;dashed=0;verticalLabelPosition=middle;verticalAlign=bottom;align=center;html=1;whiteSpace=wrap;fontSize=10;fontStyle=1;spacing=3;shape=mxgraph.aws4.productIcon;prIcon=mxgraph.aws4.xray;" vertex="1" parent="1">
          <mxGeometry x="1160" y="408" width="80" height="100" as="geometry" />
        </mxCell>
        <mxCell id="FhB4urQii62Pyy3qUbQB-53" style="edgeStyle=orthogonalEdgeStyle;rounded=0;orthogonalLoop=1;jettySize=auto;html=1;" edge="1" parent="1" source="FhB4urQii62Pyy3qUbQB-18" target="FhB4urQii62Pyy3qUbQB-2">
          <mxGeometry relative="1" as="geometry" />
        </mxCell>
        <mxCell id="FhB4urQii62Pyy3qUbQB-18" value="AWS WAF" style="sketch=0;outlineConnect=0;fontColor=#232F3E;gradientColor=none;strokeColor=#ffffff;fillColor=#232F3E;dashed=0;verticalLabelPosition=middle;verticalAlign=bottom;align=center;html=1;whiteSpace=wrap;fontSize=10;fontStyle=1;spacing=3;shape=mxgraph.aws4.productIcon;prIcon=mxgraph.aws4.waf;" vertex="1" parent="1">
          <mxGeometry x="680" y="80" width="80" height="100" as="geometry" />
        </mxCell>
        <mxCell id="FhB4urQii62Pyy3qUbQB-62" style="edgeStyle=orthogonalEdgeStyle;rounded=0;orthogonalLoop=1;jettySize=auto;html=1;" edge="1" parent="1" source="FhB4urQii62Pyy3qUbQB-19" target="FhB4urQii62Pyy3qUbQB-9">
          <mxGeometry relative="1" as="geometry">
            <mxPoint x="1670" y="560" as="targetPoint" />
            <Array as="points">
              <mxPoint x="1840" y="130" />
              <mxPoint x="1840" y="800" />
              <mxPoint x="1630" y="800" />
            </Array>
          </mxGeometry>
        </mxCell>
        <mxCell id="FhB4urQii62Pyy3qUbQB-19" value="Amazon&lt;br&gt;Aurora Replicas" style="sketch=0;outlineConnect=0;fontColor=#232F3E;gradientColor=none;strokeColor=#ffffff;fillColor=#232F3E;dashed=0;verticalLabelPosition=middle;verticalAlign=bottom;align=center;html=1;whiteSpace=wrap;fontSize=10;fontStyle=1;spacing=3;shape=mxgraph.aws4.productIcon;prIcon=mxgraph.aws4.aurora;" vertex="1" parent="1">
          <mxGeometry x="1381" y="65" width="80" height="130" as="geometry" />
        </mxCell>
        <mxCell id="FhB4urQii62Pyy3qUbQB-20" value="Amazon DynamoDB On-Demand Mode" style="sketch=0;outlineConnect=0;fontColor=#232F3E;gradientColor=none;strokeColor=#ffffff;fillColor=#232F3E;dashed=0;verticalLabelPosition=middle;verticalAlign=bottom;align=center;html=1;whiteSpace=wrap;fontSize=10;fontStyle=1;spacing=3;shape=mxgraph.aws4.productIcon;prIcon=mxgraph.aws4.dynamodb;" vertex="1" parent="1">
          <mxGeometry x="1381" y="225" width="80" height="131.98" as="geometry" />
        </mxCell>
        <mxCell id="FhB4urQii62Pyy3qUbQB-21" value="&lt;b&gt;Global&lt;br&gt;Accelerator&lt;/b&gt;" style="sketch=0;points=[[0,0,0],[0.25,0,0],[0.5,0,0],[0.75,0,0],[1,0,0],[0,1,0],[0.25,1,0],[0.5,1,0],[0.75,1,0],[1,1,0],[0,0.25,0],[0,0.5,0],[0,0.75,0],[1,0.25,0],[1,0.5,0],[1,0.75,0]];outlineConnect=0;fontColor=#232F3E;fillColor=#8C4FFF;strokeColor=#ffffff;dashed=0;verticalLabelPosition=bottom;verticalAlign=top;align=center;html=1;fontSize=12;fontStyle=0;aspect=fixed;shape=mxgraph.aws4.resourceIcon;resIcon=mxgraph.aws4.global_accelerator;labelBackgroundColor=default;labelBorderColor=none;" vertex="1" parent="1">
          <mxGeometry x="1381" y="387.48" width="78" height="78" as="geometry" />
        </mxCell>
        <mxCell id="FhB4urQii62Pyy3qUbQB-49" style="edgeStyle=orthogonalEdgeStyle;rounded=0;orthogonalLoop=1;jettySize=auto;html=1;entryX=1.002;entryY=0.88;entryDx=0;entryDy=0;entryPerimeter=0;" edge="1" parent="1" source="FhB4urQii62Pyy3qUbQB-22" target="FhB4urQii62Pyy3qUbQB-2">
          <mxGeometry relative="1" as="geometry">
            <mxPoint x="960" y="590.0000000000001" as="targetPoint" />
            <Array as="points">
              <mxPoint x="690" y="566" />
              <mxPoint x="690" y="566" />
            </Array>
          </mxGeometry>
        </mxCell>
        <mxCell id="FhB4urQii62Pyy3qUbQB-22" value="AWS Auto Scaling Groups" style="sketch=0;outlineConnect=0;fontColor=#232F3E;gradientColor=none;strokeColor=#ffffff;fillColor=#232F3E;dashed=0;verticalLabelPosition=middle;verticalAlign=bottom;align=center;html=1;whiteSpace=wrap;fontSize=10;fontStyle=1;spacing=3;shape=mxgraph.aws4.productIcon;prIcon=mxgraph.aws4.autoscaling;" vertex="1" parent="1">
          <mxGeometry x="1380" y="545" width="80" height="110" as="geometry" />
        </mxCell>
        <mxCell id="FhB4urQii62Pyy3qUbQB-26" value="&lt;font style=&quot;font-size: 14px;&quot;&gt;&lt;span&gt;User Access Layer&lt;/span&gt;&lt;/font&gt;" style="text;html=1;align=center;verticalAlign=middle;whiteSpace=wrap;rounded=0;fontStyle=1" vertex="1" parent="1">
          <mxGeometry x="63.5" y="450" width="140" height="30" as="geometry" />
        </mxCell>
        <mxCell id="FhB4urQii62Pyy3qUbQB-28" value="&lt;font style=&quot;font-size: 14px;&quot;&gt;&lt;b&gt;Security &amp;amp; Monitoring&lt;/b&gt;&lt;/font&gt;" style="text;html=1;align=center;verticalAlign=middle;whiteSpace=wrap;rounded=0;" vertex="1" parent="1">
          <mxGeometry x="720" y="40" width="160" height="30" as="geometry" />
        </mxCell>
        <mxCell id="FhB4urQii62Pyy3qUbQB-31" value="&lt;font style=&quot;font-size: 14px;&quot;&gt;&lt;b&gt;Scaling&lt;/b&gt;&lt;/font&gt;" style="text;html=1;align=center;verticalAlign=middle;whiteSpace=wrap;rounded=0;" vertex="1" parent="1">
          <mxGeometry x="1390" y="20" width="60" height="30" as="geometry" />
        </mxCell>
        <mxCell id="FhB4urQii62Pyy3qUbQB-33" value="&lt;font style=&quot;font-size: 14px;&quot;&gt;&lt;b&gt;Database &amp;amp; Storage Layer&lt;/b&gt;&lt;/font&gt;" style="text;html=1;align=center;verticalAlign=middle;whiteSpace=wrap;rounded=0;" vertex="1" parent="1">
          <mxGeometry x="1610" y="630" width="190" height="30" as="geometry" />
        </mxCell>
        <mxCell id="FhB4urQii62Pyy3qUbQB-35" value="&lt;font style=&quot;font-size: 14px;&quot;&gt;&lt;b&gt;Backend Layer&lt;/b&gt;&lt;/font&gt;" style="text;html=1;align=center;verticalAlign=middle;whiteSpace=wrap;rounded=0;" vertex="1" parent="1">
          <mxGeometry x="590" y="750" width="140" height="30" as="geometry" />
        </mxCell>
        <mxCell id="FhB4urQii62Pyy3qUbQB-42" style="edgeStyle=orthogonalEdgeStyle;rounded=0;orthogonalLoop=1;jettySize=auto;html=1;exitX=0.5;exitY=1;exitDx=0;exitDy=0;exitPerimeter=0;entryX=0;entryY=0.5;entryDx=0;entryDy=0;entryPerimeter=0;" edge="1" parent="1" source="FhB4urQii62Pyy3qUbQB-3" target="FhB4urQii62Pyy3qUbQB-4">
          <mxGeometry relative="1" as="geometry">
            <Array as="points">
              <mxPoint x="475" y="690" />
              <mxPoint x="400" y="690" />
              <mxPoint x="400" y="842" />
            </Array>
          </mxGeometry>
        </mxCell>
        <mxCell id="FhB4urQii62Pyy3qUbQB-43" style="edgeStyle=orthogonalEdgeStyle;rounded=0;orthogonalLoop=1;jettySize=auto;html=1;exitX=0;exitY=0.8;exitDx=0;exitDy=0;exitPerimeter=0;entryX=0;entryY=0.75;entryDx=0;entryDy=0;entryPerimeter=0;" edge="1" parent="1" source="FhB4urQii62Pyy3qUbQB-3" target="FhB4urQii62Pyy3qUbQB-5">
          <mxGeometry relative="1" as="geometry">
            <Array as="points">
              <mxPoint x="370" y="674" />
              <mxPoint x="370" y="1054" />
            </Array>
          </mxGeometry>
        </mxCell>
        <mxCell id="FhB4urQii62Pyy3qUbQB-44" style="edgeStyle=orthogonalEdgeStyle;rounded=0;orthogonalLoop=1;jettySize=auto;html=1;exitX=1;exitY=0.5;exitDx=0;exitDy=0;exitPerimeter=0;entryX=0;entryY=0.5;entryDx=0;entryDy=0;entryPerimeter=0;" edge="1" parent="1" source="FhB4urQii62Pyy3qUbQB-4" target="FhB4urQii62Pyy3qUbQB-6">
          <mxGeometry relative="1" as="geometry" />
        </mxCell>
        <mxCell id="FhB4urQii62Pyy3qUbQB-45" style="edgeStyle=orthogonalEdgeStyle;rounded=0;orthogonalLoop=1;jettySize=auto;html=1;exitX=0;exitY=0.79;exitDx=0;exitDy=0;exitPerimeter=0;entryX=1;entryY=0;entryDx=0;entryDy=0;entryPerimeter=0;" edge="1" parent="1" source="FhB4urQii62Pyy3qUbQB-6" target="FhB4urQii62Pyy3qUbQB-5">
          <mxGeometry relative="1" as="geometry">
            <Array as="points">
              <mxPoint x="690" y="868" />
              <mxPoint x="690" y="995" />
            </Array>
          </mxGeometry>
        </mxCell>
        <mxCell id="FhB4urQii62Pyy3qUbQB-48" style="edgeStyle=orthogonalEdgeStyle;rounded=0;orthogonalLoop=1;jettySize=auto;html=1;exitX=1;exitY=1;exitDx=0;exitDy=0;exitPerimeter=0;entryX=0.135;entryY=0.19;entryDx=0;entryDy=0;entryPerimeter=0;" edge="1" parent="1" source="FhB4urQii62Pyy3qUbQB-5" target="FhB4urQii62Pyy3qUbQB-7">
          <mxGeometry relative="1" as="geometry">
            <Array as="points">
              <mxPoint x="662" y="1116" />
            </Array>
          </mxGeometry>
        </mxCell>
        <mxCell id="FhB4urQii62Pyy3qUbQB-50" style="edgeStyle=orthogonalEdgeStyle;rounded=0;orthogonalLoop=1;jettySize=auto;html=1;" edge="1" parent="1" source="FhB4urQii62Pyy3qUbQB-21" target="FhB4urQii62Pyy3qUbQB-2">
          <mxGeometry relative="1" as="geometry">
            <Array as="points">
              <mxPoint x="1310" y="427" />
              <mxPoint x="1310" y="550" />
            </Array>
          </mxGeometry>
        </mxCell>
        <mxCell id="FhB4urQii62Pyy3qUbQB-52" style="edgeStyle=orthogonalEdgeStyle;rounded=0;orthogonalLoop=1;jettySize=auto;html=1;entryX=0.599;entryY=0.048;entryDx=0;entryDy=0;entryPerimeter=0;" edge="1" parent="1" source="FhB4urQii62Pyy3qUbQB-13" target="FhB4urQii62Pyy3qUbQB-2">
          <mxGeometry relative="1" as="geometry" />
        </mxCell>
        <mxCell id="FhB4urQii62Pyy3qUbQB-58" style="edgeStyle=orthogonalEdgeStyle;rounded=0;orthogonalLoop=1;jettySize=auto;html=1;entryX=1;entryY=0.5;entryDx=0;entryDy=0;entryPerimeter=0;" edge="1" parent="1" source="FhB4urQii62Pyy3qUbQB-22" target="FhB4urQii62Pyy3qUbQB-5">
          <mxGeometry relative="1" as="geometry" />
        </mxCell>
        <mxCell id="FhB4urQii62Pyy3qUbQB-65" value="Users" style="shape=umlActor;verticalLabelPosition=bottom;verticalAlign=top;html=1;outlineConnect=0;" vertex="1" parent="1">
          <mxGeometry x="40" y="210" width="30" height="60" as="geometry" />
        </mxCell>
        <mxCell id="FhB4urQii62Pyy3qUbQB-67" style="edgeStyle=orthogonalEdgeStyle;rounded=0;orthogonalLoop=1;jettySize=auto;html=1;exitX=0;exitY=1;exitDx=0;exitDy=0;exitPerimeter=0;entryX=0;entryY=0.5;entryDx=0;entryDy=0;entryPerimeter=0;" edge="1" parent="1" source="FhB4urQii62Pyy3qUbQB-65" target="FhB4urQii62Pyy3qUbQB-1">
          <mxGeometry relative="1" as="geometry" />
        </mxCell>
      </root>
    </mxGraphModel>
  </diagram>
</mxfile>
